HIERARCHY
ROOT Hips
{
	OFFSET 0.00000 0.00000 0.00000
	CHANNELS 6 Xposition Yposition Zposition Zrotation Yrotation Xrotation 
	JOINT LHipJoint
	{
		OFFSET 0 0 0
		CHANNELS 3 Zrotation Yrotation Xrotation
		JOINT LeftUpLeg
		{
			OFFSET 1.37590 -1.78394 0.89329
			CHANNELS 3 Zrotation Yrotation Xrotation
			JOINT LeftLeg
			{
				OFFSET 2.47928 -6.81178 0.00000
				CHANNELS 3 Zrotation Yrotation Xrotation
				JOINT LeftFoot
				{
					OFFSET 2.63345 -7.23535 0.00000
					CHANNELS 3 Zrotation Yrotation Xrotation
					JOINT LeftToeBase
					{
						OFFSET 0.23938 -0.65768 2.27012
						CHANNELS 3 Zrotation Yrotation Xrotation
						End Site
						{
							OFFSET 0.00000 -0.00000 1.18363
						}
					}
				}
			}
		}
	}
	JOINT RHipJoint
	{
		OFFSET 0 0 0
		CHANNELS 3 Zrotation Yrotation Xrotation
		JOINT RightUpLeg
		{
			OFFSET -1.33617 -1.78394 0.89329
			CHANNELS 3 Zrotation Yrotation Xrotation
			JOINT RightLeg
			{
				OFFSET -2.56922 -7.05888 0.00000
				CHANNELS 3 Zrotation Yrotation Xrotation
				JOINT RightFoot
				{
					OFFSET -2.56568 -7.04915 0.00000
					CHANNELS 3 Zrotation Yrotation Xrotation
					JOINT RightToeBase
					{
						OFFSET -0.27533 -0.75646 2.18105
						CHANNELS 3 Zrotation Yrotation Xrotation
						End Site
						{
							OFFSET -0.00000 -0.00000 1.15233
						}
					}
				}
			}
		}
	}
	JOINT LowerBack
	{
		OFFSET 0 0 0
		CHANNELS 3 Zrotation Yrotation Xrotation
		JOINT Spine
		{
			OFFSET 0.06190 2.15152 -0.00935
			CHANNELS 3 Zrotation Yrotation Xrotation
			JOINT Spine1
			{
				OFFSET 0.06334 2.15332 0.00872
				CHANNELS 3 Zrotation Yrotation Xrotation
				JOINT Neck
				{
					OFFSET 0 0 0
					CHANNELS 3 Zrotation Yrotation Xrotation
					JOINT Neck1
					{
						OFFSET -0.04202 1.66908 0.23524
						CHANNELS 3 Zrotation Yrotation Xrotation
						JOINT Head
						{
							OFFSET 0.07510 1.69357 -0.24440
							CHANNELS 3 Zrotation Yrotation Xrotation
							End Site
							{
								OFFSET 0.02556 1.71719 -0.11000
							}
						}
					}
				}
				JOINT LeftShoulder
				{
					OFFSET 0 0 0
					CHANNELS 3 Zrotation Yrotation Xrotation
					JOINT LeftArm
					{
						OFFSET 3.67168 1.26306 -0.41342
						CHANNELS 3 Zrotation Yrotation Xrotation
						JOINT LeftForeArm
						{
							OFFSET 4.68510 -0.00000 -0.00000
							CHANNELS 3 Zrotation Yrotation Xrotation
							JOINT LeftHand
							{
								OFFSET 3.39626 -0.00000 -0.00000
								CHANNELS 3 Zrotation Yrotation Xrotation
								JOINT LeftFingerBase
								{
									OFFSET 0 0 0
									CHANNELS 3 Zrotation Yrotation Xrotation
									JOINT LeftHandIndex1
									{
										OFFSET 0.48608 -0.00000 -0.00000
										CHANNELS 3 Zrotation Yrotation Xrotation
										End Site
										{
											OFFSET 0.39189 -0.00000 -0.00000
										}
									}
								}
								JOINT LThumb
								{
									OFFSET 0 0 0
									CHANNELS 3 Zrotation Yrotation Xrotation
									End Site
									{
										OFFSET 0.39787 -0.00000 0.39787
									}
								}
							}
						}
					}
				}
				JOINT RightShoulder
				{
					OFFSET 0 0 0
					CHANNELS 3 Zrotation Yrotation Xrotation
					JOINT RightArm
					{
						OFFSET -3.04136 1.42992 -0.76390
						CHANNELS 3 Zrotation Yrotation Xrotation
						JOINT RightForeArm
						{
							OFFSET -5.55576 -0.00000 -0.00000
							CHANNELS 3 Zrotation Yrotation Xrotation
							JOINT RightHand
							{
								OFFSET -3.32774 -0.00000 -0.00000
								CHANNELS 3 Zrotation Yrotation Xrotation
								JOINT RightFingerBase
								{
									OFFSET 0 0 0
									CHANNELS 3 Zrotation Yrotation Xrotation
									JOINT RightHandIndex1
									{
										OFFSET -0.50763 -0.00000 -0.00000
										CHANNELS 3 Zrotation Yrotation Xrotation
										End Site
										{
											OFFSET -0.40926 -0.00000 -0.00000
										}
									}
								}
								JOINT RThumb
								{
									OFFSET 0 0 0
									CHANNELS 3 Zrotation Yrotation Xrotation
									End Site
									{
										OFFSET -0.41551 -0.00000 0.41551
									}
								}
							}
						}
					}
				}
			}
		}
	}
}
MOTION
Frames: 10
Frame Time: 0.0444444
0.00 0.00 0.00 -763.3760 -87.0268 770.2610 0.0000 0.0000 0.0000 -18.2890 -3.6969 7.0079 1.8833 8.6186 24.6094 0.2118 -9.1874 -9.7483 1.2096 -6.9772 -19.6477 0.0000 0.0000 0.0000 17.1541 13.7543 -31.2759 -1.5986 -7.9746 22.6371 0.4977 -12.8367 -1.1316 -0.3328 -3.7076 10.2553 -0.1982 -3.0849 -0.7743 4.7218 -4.1697 -1.4851 4.9639 -2.1026 -0.7258 -6.7757 -4.0348 -10.1906 5.3161 -6.2021 23.6908 2.2443 -3.1413 9.5151 0.0000 -0.0000 0.0000 -93.5296 1.7524 22.0499 58.3100 -55.8425 -32.9387 -0.0000 0.0000 -23.3041 17.6895 36.8981 10.8403 -7.1250 0.0000 -0.0000 -22.1983 66.9651 -11.9856 0.0000 -0.0000 0.0000 84.4122 -4.3857 12.2377 -58.7458 55.9664 -33.2996 0.0000 -0.0000 -20.7980 -21.8619 -40.9920 14.7450 7.1250 -0.0000 -0.0000 23.0530 -71.9358 -15.0013
0.00 0.00 0.00 -770.6380 -85.5794 776.7170 0.0000 0.0000 0.0000 -14.6446 -3.9644 1.7612 4.0623 12.2428 36.5965 -0.1472 -7.0688 4.6952 1.2722 -7.1487 -20.1568 0.0000 0.0000 0.0000 20.9107 12.5269 -27.0262 -1.7450 -8.3133 23.6698 0.3970 -11.1752 -2.6127 -0.7594 -5.5653 15.5283 0.7513 -2.9248 -0.7678 5.6277 -3.9893 -1.5483 5.3819 -2.0333 -0.8105 -7.0091 -4.3962 -10.1953 6.0731 -6.8373 23.4432 2.4688 -3.3757 9.5091 0.0000 -0.0000 0.0000 -91.2825 1.1515 27.1054 57.1716 -55.5079 -31.9986 -0.0000 0.0000 -15.0634 17.3884 33.1181 9.7093 -7.1250 0.0000 -0.0000 -18.5973 63.3979 -8.4487 0.0000 -0.0000 0.0000 83.8341 -3.5184 13.9490 -61.3037 56.6474 -35.4280 0.0000 -0.0000 -20.5613 -23.8421 -43.2061 16.8335 7.1250 -0.0000 -0.0000 24.8167 -74.5387 -17.5567
0.00 0.00 0.00 -786.0940 -80.6034 789.0810 0.0000 0.0000 0.0000 -4.5294 -4.6017 -17.8922 10.7846 17.8281 62.0802 -0.0053 -2.0513 2.4414 0.7746 -5.6195 -15.6842 0.0000 0.0000 0.0000 32.5937 7.0571 -8.9702 -0.9210 -6.1142 17.1162 0.1099 -8.9083 -10.3846 -0.7769 -5.6277 15.7079 4.1257 -1.9445 -1.4736 6.7147 -2.8474 -1.0760 4.5859 -1.5163 -0.1334 -6.3149 -4.8675 -9.8407 8.7145 -8.3498 23.1541 3.0909 -3.7772 9.5422 -0.0000 -0.0000 0.0000 -83.6832 1.7709 38.0273 77.6764 -59.4183 -49.3483 -0.0000 0.0000 -5.7474 4.2512 27.6943 1.9786 -7.1250 0.0000 -0.0000 -27.8406 55.4774 -7.5861 -0.0000 -0.0000 0.0000 82.2060 1.3725 20.6408 -95.9711 59.8648 -65.1688 0.0000 -0.0000 -21.6005 -17.8631 -44.9457 12.8259 7.1250 -0.0000 -0.0000 36.1284 -73.6960 -25.3538
0.00 0.00 0.00 -798.1700 -80.7677 801.6370 0.0000 0.0000 0.0000 -3.7174 -4.1652 -27.3237 9.6940 17.2341 58.4605 0.1314 -1.0834 -6.5504 0.7571 -5.5569 -15.5042 0.0000 0.0000 0.0000 34.4468 5.3657 -1.9900 -0.5000 -4.5334 12.5823 -0.0662 -7.2034 -11.6650 -0.6910 -5.3140 14.8065 5.4819 -0.5488 -2.0848 5.3485 -0.9792 -1.4246 2.4194 -0.5730 -0.2900 -6.8599 -4.9966 -9.7445 11.0301 -8.8572 21.9669 3.9195 -3.8496 9.2927 -0.0000 0.0000 0.0000 -82.8303 6.5067 35.7533 110.7942 -58.3014 -77.9056 -0.0000 0.0000 -6.3860 -2.9799 26.0542 -1.3098 -7.1250 0.0000 -0.0000 -33.4350 52.7360 -6.9948 -0.0000 0.0000 0.0000 82.3988 3.2078 18.9298 -121.8109 55.8078 -87.1613 0.0000 -0.0000 -20.6927 -17.0616 -38.5530 10.8285 7.1250 -0.0000 -0.0000 25.0791 -68.2428 -14.3380
0.00 0.00 0.00 -811.9320 -80.5720 817.1090 0.0000 0.0000 0.0000 -3.2551 -4.3933 -32.8804 6.0081 14.4362 45.0141 0.2789 1.5249 -10.6522 0.8420 -5.8530 -16.3586 0.0000 0.0000 0.0000 35.3637 5.4741 1.0997 -0.4272 -4.1946 11.6247 -0.2486 -5.9233 -13.4327 -0.4724 -4.4083 12.2283 6.9614 0.9569 -2.5159 4.1047 1.0383 -2.2225 0.3518 0.4025 -0.8313 -7.5461 -5.3463 -9.4865 12.0896 -9.3372 20.9533 4.3384 -4.0489 9.0326 -0.0000 -0.0000 0.0000 -84.6634 8.8751 32.1008 130.3926 -52.8359 -94.1391 -0.0000 0.0000 -8.3686 -6.8910 21.1754 -2.4997 -7.1250 0.0000 -0.0000 -33.7664 48.0085 -2.8102 -0.0000 -0.0000 0.0000 80.5820 6.3339 13.1118 -131.4332 52.4009 -94.9659 0.0000 -0.0000 -19.3405 -18.1693 -32.8567 10.0960 7.1250 -0.0000 -0.0000 17.4875 -63.3571 -7.9115
0.00 0.00 0.00 -820.6210 -79.8816 827.2670 0.0000 0.0000 0.0000 -2.0825 -6.5960 -32.5808 2.4424 9.7323 28.1142 0.0597 5.2437 -9.1325 0.8148 -5.7599 -16.0894 0.0000 0.0000 0.0000 35.8778 5.1680 2.7602 -0.4130 -4.1251 11.4289 -0.4100 -4.9568 -14.9367 -0.2851 -3.4341 9.4898 8.0668 1.8213 -3.2342 3.5242 2.1122 -2.6341 -0.8159 0.9120 -0.7511 -8.0198 -5.3281 -9.4548 11.4744 -9.0014 20.7087 4.2439 -3.9746 8.8958 0.0000 0.0000 0.0000 -88.0103 9.0522 28.8000 136.7207 -49.8971 -99.0858 -0.0000 0.0000 -11.5696 -8.5933 18.0542 -2.6814 -7.1250 0.0000 -0.0000 -33.4763 45.1365 -0.1276 0.0000 0.0000 0.0000 78.3723 10.0552 7.1744 -128.5984 53.5454 -92.7025 0.0000 -0.0000 -21.6312 -19.6002 -28.1516 9.5369 7.1250 -0.0000 -0.0000 12.5074 -59.1394 -4.3634
0.00 0.00 0.00 -853.4300 -80.3129 860.2820 0.0000 0.0000 0.0000 -6.3871 -13.2307 -31.8529 1.9589 8.7799 25.1092 0.0046 0.9273 1.2815 0.0354 -1.2145 -3.3391 0.0000 0.0000 0.0000 30.5827 4.7390 6.4262 -2.6612 -10.1253 29.3834 -0.6999 -2.3953 -16.8484 -0.6331 5.0911 -14.1685 6.7173 3.2745 -2.7953 0.4527 4.1689 -1.5658 -3.1417 2.0433 0.3931 -9.0646 -4.3022 -12.7758 3.4619 -5.2357 24.1861 2.0564 -3.0073 10.1556 -0.0000 0.0000 0.0000 -93.5506 4.9931 32.4335 134.7128 -50.9084 -97.5386 -0.0000 0.0000 -18.7200 2.7319 23.1358 1.0741 -7.1250 0.0000 -0.0000 -26.3519 51.1638 -4.2527 -0.0000 0.0000 0.0000 73.8893 16.9627 -8.5645 -72.9524 58.8729 -45.2922 0.0000 -0.0000 -44.4442 -13.4411 -38.1043 8.3895 7.1250 -0.0000 -0.0000 28.5493 -66.7645 -15.4937
0.00 0.00 0.00 -860.8150 -80.6830 867.1010 0.0000 0.0000 0.0000 -9.8748 -11.7808 -27.3873 1.9812 8.8268 25.2549 -0.0003 -0.7229 -0.4345 0.0076 0.5647 1.5518 0.0000 0.0000 0.0000 26.8644 4.1319 -1.3462 -5.6768 -14.1076 43.6702 0.1544 -7.0996 -1.0403 -0.0736 1.7505 -4.8166 5.3939 2.7244 -2.5456 0.3259 3.4869 -1.2992 -2.5735 1.7178 0.3896 -8.2848 -3.3063 -13.4015 1.1271 -3.3379 24.0655 1.3404 -2.3174 10.0503 0.0000 0.0000 0.0000 -94.4277 7.0382 31.9189 134.0978 -51.2029 -97.0602 -0.0000 0.0000 -17.8485 4.3925 23.1569 1.7302 -7.1250 0.0000 -0.0000 -24.8266 51.4522 -4.1615 0.0000 0.0000 0.0000 76.9896 13.9910 -4.6893 -79.3712 59.5688 -50.8085 0.0000 -0.0000 -42.6129 -14.0734 -37.8891 8.7523 7.1250 -0.0000 -0.0000 27.5622 -66.7677 -14.9251
0.00 0.00 0.00 -878.5050 -82.5593 883.8690 0.0000 0.0000 0.0000 -16.1034 -10.0153 -19.9645 1.5477 7.8524 22.2668 0.0244 -2.5018 -3.0630 0.0319 1.1525 3.1685 0.0000 0.0000 0.0000 21.1916 3.1131 -13.1326 -10.2621 -17.5546 60.3607 0.5287 -14.9080 2.7679 -0.0625 -1.6134 4.4384 1.5946 1.2048 -1.9266 0.2038 1.5703 -1.0305 -0.6537 0.7761 0.0615 -6.9908 -1.8560 -14.6434 -1.6106 -0.8030 24.1257 0.4729 -1.3595 10.1701 0.0000 -0.0000 0.0000 -93.9417 9.1590 32.0839 133.4116 -51.5233 -96.5242 -0.0000 0.0000 -21.8180 6.5749 25.4439 2.8349 -7.1250 0.0000 -0.0000 -24.1061 53.9029 -5.5234 0.0000 -0.0000 0.0000 80.2886 11.0877 2.1077 -89.5398 59.9992 -59.6015 0.0000 -0.0000 -41.2825 -15.4261 -39.4662 9.9480 7.1250 -0.0000 -0.0000 28.2762 -68.5185 -16.4444
0.00 0.00 0.00 -879.1870 -84.0567 884.0110 0.0000 0.0000 0.0000 -18.8506 -8.3801 -11.2601 0.8960 6.0329 16.8798 0.0726 -3.5747 -5.0543 0.0347 1.2029 3.3073 0.0000 0.0000 0.0000 19.2358 2.3038 -25.4650 -12.5306 -18.6061 67.6611 1.0815 -18.3660 -3.1774 -0.2486 -3.2085 8.8597 0.8064 -0.0679 -1.5327 0.8395 -0.1112 -0.9054 0.4055 -0.0608 -0.0674 -5.9461 -0.7726 -15.1657 -4.1537 1.1215 25.2296 -0.3726 -0.7667 10.6566 0.0000 0.0000 0.0000 -90.7541 6.8314 34.4438 128.2446 -53.6794 -92.4177 -0.0000 0.0000 -29.3706 5.3569 27.8009 2.5042 -7.1250 0.0000 -0.0000 -26.8487 55.7882 -7.4940 0.0000 0.0000 0.0000 83.0813 5.5586 10.9810 -105.2626 59.1012 -73.1779 0.0000 -0.0000 -38.4278 -16.5077 -40.1979 10.8287 7.1250 -0.0000 -0.0000 28.1804 -69.4762 -16.9802
